<svg width="36" height="36" viewBox="0 0 36 36" fill="none" xmlns="http://www.w3.org/2000/svg">
<g clip-path="url(#clip0_1_81)">
<path d="M25.5 16.5H10.5C8.84315 16.5 7.5 17.8431 7.5 19.5V28.5C7.5 30.1569 8.84315 31.5 10.5 31.5H25.5C27.1569 31.5 28.5 30.1569 28.5 28.5V19.5C28.5 17.8431 27.1569 16.5 25.5 16.5Z" stroke="#DE0288" stroke-width="1.5" stroke-linecap="round" stroke-linejoin="round"/>
<path d="M18 25.5C18.8284 25.5 19.5 24.8284 19.5 24C19.5 23.1716 18.8284 22.5 18 22.5C17.1716 22.5 16.5 23.1716 16.5 24C16.5 24.8284 17.1716 25.5 18 25.5Z" stroke="#DE0288" stroke-width="1.5" stroke-linecap="round" stroke-linejoin="round"/>
<path d="M12 16.5V10.5C12 8.9087 12.6321 7.38258 13.7574 6.25736C14.8826 5.13214 16.4087 4.5 18 4.5C19.5913 4.5 21.1174 5.13214 22.2426 6.25736C23.3679 7.38258 24 8.9087 24 10.5V16.5" stroke="#DE0288" stroke-width="1.5" stroke-linecap="round" stroke-linejoin="round"/>
</g>
<defs>
<clipPath id="clip0_1_81">
<rect width="36" height="36" fill="white"/>
</clipPath>
</defs>
</svg>
