<svg width="113" height="32" viewBox="0 0 113 32" fill="none" xmlns="http://www.w3.org/2000/svg">
<path d="M10.392 5.128C13.296 5.128 15.684 6.088 17.556 8.008C19.452 9.928 20.4 12.352 20.4 15.28C20.4 18.184 19.452 20.608 17.556 22.552C15.684 24.472 13.296 25.432 10.392 25.432C7.464 25.432 5.052 24.424 3.156 22.408V31.948H0.0960001V5.56H2.184L2.796 8.548C3.708 7.468 4.812 6.628 6.108 6.028C7.428 5.428 8.856 5.128 10.392 5.128ZM10.176 22.48C12.24 22.48 13.944 21.796 15.288 20.428C16.632 19.06 17.304 17.344 17.304 15.28C17.304 13.216 16.632 11.5 15.288 10.132C13.944 8.764 12.24 8.08 10.176 8.08C8.112 8.08 6.396 8.776 5.028 10.168C3.684 11.536 3.012 13.24 3.012 15.28C3.012 16.624 3.312 17.848 3.912 18.952C4.536 20.056 5.4 20.92 6.504 21.544C7.608 22.168 8.832 22.48 10.176 22.48ZM55.0756 5.128C57.9796 5.128 60.3676 6.088 62.2396 8.008C64.1356 9.928 65.0836 12.352 65.0836 15.28C65.0836 18.184 64.1356 20.608 62.2396 22.552C60.3676 24.472 57.9796 25.432 55.0756 25.432C52.1476 25.432 49.7356 24.424 47.8396 22.408V31.948H44.7796V5.56H46.8676L47.4796 8.548C48.3916 7.468 49.4956 6.628 50.7916 6.028C52.1116 5.428 53.5396 5.128 55.0756 5.128ZM54.8596 22.48C56.9236 22.48 58.6276 21.796 59.9716 20.428C61.3156 19.06 61.9876 17.344 61.9876 15.28C61.9876 13.216 61.3156 11.5 59.9716 10.132C58.6276 8.764 56.9236 8.08 54.8596 8.08C52.7956 8.08 51.0796 8.776 49.7116 10.168C48.3676 11.536 47.6956 13.24 47.6956 15.28C47.6956 16.624 47.9956 17.848 48.5956 18.952C49.2196 20.056 50.0836 20.92 51.1876 21.544C52.2916 22.168 53.5156 22.48 54.8596 22.48ZM86.3005 5.56H88.7485V25H86.1925L85.8685 22.048C84.9565 23.128 83.8405 23.968 82.5205 24.568C81.2245 25.144 79.7965 25.432 78.2365 25.432C75.3805 25.432 72.9925 24.472 71.0725 22.552C69.1525 20.608 68.1925 18.184 68.1925 15.28C68.1925 12.376 69.1525 9.964 71.0725 8.044C72.9925 6.1 75.3805 5.128 78.2365 5.128C79.8205 5.128 81.2605 5.428 82.5565 6.028C83.8765 6.628 84.9925 7.468 85.9045 8.548L86.3005 5.56ZM73.3405 20.428C74.7085 21.796 76.4245 22.48 78.4885 22.48C80.5525 22.48 82.2565 21.796 83.6005 20.428C84.9445 19.06 85.6165 17.344 85.6165 15.28C85.6165 13.216 84.9445 11.5 83.6005 10.132C82.2565 8.764 80.5525 8.08 78.4885 8.08C76.4245 8.08 74.7085 8.776 73.3405 10.168C71.9965 11.536 71.3245 13.24 71.3245 15.28C71.3245 17.32 71.9965 19.036 73.3405 20.428ZM109.096 5.56H112.372L103.12 25.792C102.4 27.376 101.692 28.6 100.996 29.464C100.3 30.328 99.5204 30.952 98.6564 31.336C97.7924 31.744 96.7364 31.948 95.4884 31.948H93.6524V29.176H95.2364C96.5324 29.176 97.5044 28.912 98.1524 28.384C98.8004 27.856 99.5204 26.776 100.312 25.144L100.996 23.668L92.3564 5.56H95.7044L102.616 20.284L109.096 5.56Z" fill="#171717"/>
<path d="M32.6169 20.176H39.9249V25H23.1489V23.884C26.5809 19.9 29.0289 16.996 30.4929 15.172C31.9809 13.324 32.9769 11.908 33.4809 10.924C34.0089 9.94 34.2729 9.016 34.2729 8.152C34.2729 7.312 34.0209 6.64 33.5169 6.136C33.0129 5.632 32.3529 5.38 31.5369 5.38C30.6969 5.38 30.0129 5.644 29.4849 6.172C28.9809 6.676 28.7289 7.36 28.7289 8.224V8.656H23.5809V8.152C23.5809 5.92 24.3009 4.096 25.7409 2.68C27.1809 1.264 29.0889 0.555999 31.4649 0.555999C33.0009 0.555999 34.3809 0.879999 35.6049 1.528C36.8289 2.152 37.7769 3.04 38.4489 4.192C39.1209 5.344 39.4569 6.64 39.4569 8.08C39.4569 9.616 38.9889 11.236 38.0529 12.94C37.1169 14.644 35.3049 17.056 32.6169 20.176Z" fill="#DE0288"/>
</svg>
